<svg xmlns="http://www.w3.org/2000/svg" version="1.1" xmlns:xlink="http://www.w3.org/1999/xlink" xmlns:svgjs="http://svgjs.dev/svgjs" width="1500" height="507" viewBox="0 0 1500 507"><g transform="matrix(1,0,0,1,-0.9090909090907644,-0.5901053992392065)"><svg viewBox="0 0 396 134" data-background-color="#f6f8b6" preserveAspectRatio="xMidYMid meet" height="507" width="1500" xmlns="http://www.w3.org/2000/svg" xmlns:xlink="http://www.w3.org/1999/xlink"><g id="tight-bounds" transform="matrix(1,0,0,1,0.23999999999995225,0.15596474062732568)"><svg viewBox="0 0 395.52 133.68807051874535" height="133.68807051874535" width="395.52"><g><svg viewBox="0 0 645.8406110681714 218.2978993637522" height="133.68807051874535" width="395.52"><g transform="matrix(1,0,0,1,250.3206110681714,30.16997017255909)"><svg viewBox="0 0 395.52 157.95795901863403" height="157.95795901863403" width="395.52"><g id="textblocktransform"><svg viewBox="0 0 395.52 157.95795901863403" height="157.95795901863403" width="395.52" id="textblock"><g><svg viewBox="0 0 395.52 99.50938693467336" height="99.50938693467336" width="395.52"><g transform="matrix(1,0,0,1,0,0)"><svg width="395.52" viewBox="3.1 -37.5 149.23000000000002 37.55" height="99.50938693467336" data-palette-color="#e8c33f"><path d="M7.75 0L3.1 0 3.1-35 7.75-35 14.7-13.65 21.65-35 26.3-35 26.3 0 21.65 0 21.65-20.8 17-6.55 12.4-6.55 7.75-20.8 7.75 0ZM44 0L33.55 0Q32.05 0 30.97-1.05 29.9-2.1 29.9-3.65L29.9-3.65 29.9-11.2Q29.9-12.7 30.97-13.78 32.05-14.85 33.55-14.85L33.55-14.85 37.45-14.85Q38.25-14.85 38.77-15.38 39.3-15.9 39.3-16.65L39.3-16.65 39.3-18.5Q39.3-19.25 38.77-19.78 38.25-20.3 37.45-20.3L37.45-20.3 32.05-20.3 33.1-25 40.35-25Q41.85-25 42.92-23.93 44-22.85 44-21.35L44-21.35 44 0ZM36.4-4.7L36.4-4.7 39.3-4.7 39.3-10.15 36.4-10.15Q35.65-10.15 35.12-9.63 34.6-9.1 34.6-8.35L34.6-8.35 34.6-6.5Q34.6-5.75 35.12-5.23 35.65-4.7 36.4-4.7ZM51.4 0L46.7 0 46.7-25 57.15-25Q58.6-25 59.7-23.95 60.8-22.9 60.8-21.4L60.8-21.4 60.8 0 56.1 0 56.1-18.5Q56.1-19.3 55.55-19.8 55-20.3 54.3-20.3L54.3-20.3 51.4-20.3 51.4 0ZM69.19-32.8L64.49-31.7 64.49-36.4 69.19-37.5 69.19-32.8ZM69.29 0L64.59 0 64.59-23.9 69.29-25 69.29 0ZM76.99 0L72.29 0 72.29-25 82.74-25Q84.24-25 85.32-23.93 86.39-22.85 86.39-21.35L86.39-21.35 86.39-15.9 81.69-16.95 81.69-18.45Q81.69-19.2 81.17-19.75 80.64-20.3 79.89-20.3L79.89-20.3 76.99-20.3 76.99 0ZM92.14 0.05L87.49 0.05 94.54-34.95 99.09-34.95 106.04 0.05 101.39 0.05 100.04-6.5 93.39-6.5 92.14 0.05ZM96.84-23.55L94.29-11.1 99.24-11.1 96.84-23.55ZM122.74 0L112.29 0Q110.74 0 109.69-1.05 108.64-2.1 108.64-3.65L108.64-3.65 108.64-25 113.34-25 113.34-6.5Q113.34-5.8 113.89-5.25 114.44-4.7 115.14-4.7L115.14-4.7 118.04-4.7 118.04-25 122.74-25 122.74 0ZM130.93 0L126.23 0 126.23-36.4 130.93-37.45 130.93-25 136.88-25 135.78-20.3 130.93-20.3 130.93 0ZM148.73 0L141.93 0Q140.38 0 139.33-1.07 138.28-2.15 138.28-3.65L138.28-3.65 138.28-21.35Q138.28-22.85 139.33-23.93 140.38-25 141.93-25L141.93-25 148.73-25Q150.23-25 151.28-23.93 152.33-22.85 152.33-21.35L152.33-21.35 152.33-3.65Q152.33-2.15 151.28-1.07 150.23 0 148.73 0L148.73 0ZM144.78-4.7L144.78-4.7 145.83-4.7Q146.58-4.7 147.13-5.23 147.68-5.75 147.68-6.5L147.68-6.5 147.68-18.5Q147.68-19.25 147.13-19.78 146.58-20.3 145.83-20.3L145.83-20.3 144.78-20.3Q144.03-20.3 143.51-19.78 142.98-19.25 142.98-18.5L142.98-18.5 142.98-6.5Q142.98-5.75 143.51-5.23 144.03-4.7 144.78-4.7Z" opacity="1" transform="matrix(1,0,0,1,0,0)" fill="#e8c33f" class="wordmark-text-0" data-fill-palette-color="primary" id="text-0"></path></svg></g></svg></g><g transform="matrix(1,0,0,1,0,123.0011649646633)"><svg viewBox="0 0 232.209792 34.956794053970704" height="34.956794053970704" width="232.209792"><g transform="matrix(1,0,0,1,0,0)"><svg width="232.209792" viewBox="0.95 -38.35 259.38 39.050000000000004" height="34.956794053970704" data-palette-color="#040300"><path d="M7.3-36L16.7-36 22.05-18.75 33.55-36 43-36 36.65 0 27.6 0 31.2-20.3 23.5-8.2 16.95-8.2 13.55-20.3 9.95 0 0.95 0 7.3-36ZM67.35-7.7L67.35-7.7Q67.35-6.4 68.67-6.4 70-6.4 70.9-6.9L70.9-6.9 70.65-1.25Q68.25 0.7 65.25 0.7L65.25 0.7Q59.75 0.7 59.15-3.3L59.15-3.3Q56.65 0.7 51.8 0.7L51.8 0.7Q43.6 0.7 43.6-6.35L43.6-6.35Q43.6-7.55 43.85-9L43.85-9 44.9-14.85Q45.7-19.35 48.57-22.03 51.45-24.7 56.07-24.7 60.7-24.7 62.35-22.55L62.35-22.55 62.6-24.05 70.2-24.05 67.4-8.3Q67.35-8 67.35-7.7ZM53.2-13.85L52.55-10.1Q52.45-9.65 52.45-8.85 52.45-8.05 53.2-7.28 53.95-6.5 55.72-6.5 57.5-6.5 58.8-7.9L58.8-7.9 60.3-16.3Q59.75-17.55 57.7-17.55L57.7-17.55Q53.85-17.55 53.2-13.85L53.2-13.85ZM90.1-15.35L90.1-15.35Q90.1-17.5 88.02-17.5 85.95-17.5 84.6-15.95L84.6-15.95 81.8 0 73.3 0 77.55-24.05 85.45-24.05 84.9-21.1Q87.85-24.75 92.35-24.75 96.85-24.75 98.2-22.55L98.2-22.55Q99.05-21.15 99.05-19.35 99.05-17.55 98.8-16L98.8-16 97.45-8.3Q97.4-8 97.4-7.75L97.4-7.75Q97.4-6.4 98.9-6.4L98.9-6.4Q100.05-6.4 100.95-6.9L100.95-6.9 100.7-1.25Q98.35 0.7 95.35 0.7L95.35 0.7Q88.55 0.7 88.55-5L88.55-5Q88.55-6 88.75-7.15L88.75-7.15 89.95-13.8Q90.1-14.7 90.1-15.35ZM114.44-6.4L114.44-6.4Q115.59-6.4 116.49-6.9L116.49-6.9 116.24-1.25Q113.89 0.7 110.89 0.7L110.89 0.7Q106.34 0.7 104.99-1.4L104.99-1.4Q104.09-2.8 104.09-4.38 104.09-5.95 104.29-7.15L104.29-7.15 107.29-24.05 115.79-24.05 112.99-8.3Q112.94-8 112.94-7.75L112.94-7.75Q112.94-6.4 114.44-6.4ZM108.29-32.2L108.29-32.2Q108.29-35.4 109.72-36.88 111.14-38.35 114.14-38.35L114.14-38.35Q118.34-38.35 118.34-34.65L118.34-34.65Q118.34-31.5 116.92-30.05 115.49-28.6 112.44-28.6L112.44-28.6Q108.29-28.6 108.29-32.2ZM143.79-18.95L143.79-18.95Q143.79-17.25 143.22-15.65 142.64-14.05 142.09-13.3L142.09-13.3 141.54-12.6 133.99-12.6Q135.24-13.75 135.24-15.45L135.24-15.45Q135.24-16.35 134.67-16.93 134.09-17.5 133.09-17.5L133.09-17.5Q131.39-17.5 130.14-15.8L130.14-15.8 127.34 0 118.84 0 123.09-24.05 130.99-24.05 130.39-20.7Q133.24-24.75 137.29-24.75L137.29-24.75Q140.54-24.75 142.17-23.2 143.79-21.65 143.79-18.95ZM171.99 0L162.49 0 162.79-7.85 154.44-7.85 151.99 0 142.44 0 155.29-36 171.79-36 171.99 0ZM163.59-27.25L160.44-27.25 156.49-14.55 163.04-14.55 163.59-27.25ZM200.99-7.7L200.99-7.7Q200.99-6.4 202.31-6.4 203.64-6.4 204.54-6.9L204.54-6.9 204.29-1.25Q201.89 0.7 198.89 0.7L198.89 0.7Q193.24 0.7 192.74-3.65L192.74-3.65Q189.74 0.7 184.66 0.7 179.59 0.7 178.09-1.6L178.09-1.6Q177.09-3.05 177.09-4.9 177.09-6.75 177.39-8.3L177.39-8.3 180.19-24.05 188.69-24.05 186.34-10.75Q186.19-9.85 186.19-8.95L186.19-8.95Q186.19-6.55 188.89-6.55L188.89-6.55Q191.14-6.55 192.49-8.1L192.49-8.1 195.34-24.05 203.84-24.05 201.04-8.3Q200.99-8 200.99-7.7ZM218.33 0.7L218.33 0.7Q212.53 0.7 209.98-1.9L209.98-1.9Q208.08-3.8 208.08-7L208.08-7Q208.08-8.05 208.28-9.25L208.28-9.25 211.68-28.6 220.83-32.4 219.38-24.05 233.18-24.05 231.93-17 218.13-17 217.13-11.35Q216.93-10.4 216.93-9.65L216.93-9.65Q216.93-6.5 219.93-6.5L219.93-6.5Q221.53-6.5 222.61-7.85 223.68-9.2 224.08-11.45L224.08-11.45 232.38-11.45Q230.28 0.7 218.33 0.7ZM250.03-24.75L250.03-24.75Q255.43-24.75 258.18-22.4L258.18-22.4Q260.33-20.55 260.33-17.25L260.33-17.25Q260.33-16.15 260.08-14.85L260.08-14.85 259.03-9Q258.08-3.7 254.61-1.5 251.13 0.7 245.33 0.7 239.53 0.7 236.83-1.5L236.83-1.5Q234.83-3.15 234.83-6.45L234.83-6.45Q234.83-7.6 235.08-9L235.08-9 236.13-14.85Q237.88-24.75 250.03-24.75ZM250.73-10.1L251.38-13.85Q251.48-14.35 251.48-15.13 251.48-15.9 250.83-16.85 250.18-17.8 248.56-17.8 246.93-17.8 245.83-16.73 244.73-15.65 244.43-13.85L244.43-13.85 243.78-10.1Q243.68-9.6 243.68-8.83 243.68-8.05 244.33-7.15 244.98-6.25 246.61-6.25 248.23-6.25 249.33-7.38 250.43-8.5 250.73-10.1L250.73-10.1Z" opacity="1" transform="matrix(1,0,0,1,0,0)" fill="#040300" class="slogan-text-1" data-fill-palette-color="secondary" id="text-1"></path></svg></g></svg></g></svg></g></svg></g><g><svg viewBox="0 0 226.82883303818144 218.2978993637522" height="218.2978993637522" width="226.82883303818144"><g><svg xmlns="http://www.w3.org/2000/svg" xmlns:xlink="http://www.w3.org/1999/xlink" version="1.1" x="0" y="0" viewBox="1.2939999999999998 3.7839902480806265 97.342 93.68100975191938" enable-background="new 0 0 100 100" xml:space="preserve" height="218.2978993637522" width="226.82883303818144" class="icon-icon-0" data-fill-palette-color="accent" id="icon-0"><g fill="#000000" data-fill-palette-color="accent"><path d="M75.984 64.604H23.601c1.72 3.613 12.79 6.4 26.192 6.4C63.193 71.004 74.266 68.217 75.984 64.604L75.984 64.604zM6.639 54.232c-0.164 3.265 3.689 6.716 8.606 7.703 4.916 0.989 9.033-0.854 9.197-4.119 0.164-3.268-3.689-6.717-8.605-7.706C10.92 49.121 6.803 50.967 6.639 54.232L6.639 54.232zM49.791 8.024C38.698 8.095 25.766 8.495 15.15 11.048c-0.942 0.18-1.053 1.171-1.053 1.171l-0.909 24.142c-0.078 4.187 4.705 6.09 36.602 6.191 31.899-0.101 36.681-2.004 36.604-6.191l-0.91-24.142c0 0-0.109-0.991-1.053-1.171C73.814 8.495 60.884 8.095 49.791 8.024L49.791 8.024zM92.941 54.232c-0.164-3.267-4.279-5.112-9.195-4.122-4.916 0.989-8.77 4.438-8.605 7.706 0.164 3.266 4.28 5.108 9.196 4.119C89.255 60.948 93.105 57.497 92.941 54.232L92.941 54.232zM49.966 88.538l-2.916-0.002c-10.834-0.041-21.461-0.251-30.302-0.9v4.933c0 2.705-2.192 4.896-4.896 4.896H7.826c-2.704 0-4.896-2.188-4.896-4.896V82.268c-0.105-0.916-0.216-1.97-0.324-3.147-0.832-4.317-1.312-9.418-1.312-14.886 0-6.932 0.774-13.28 2.056-18.184 0.254-1.117 0.562-2.114 0.911-3.003 0.107-0.305 0.218-0.602 0.33-0.891L9.462 8.825c0 0 0.196-1.388 1.439-1.698 11.178-3.042 38.13-3.345 39.065-3.343 0.933-0.002 27.888 0.301 39.063 3.343 1.242 0.31 1.441 1.698 1.441 1.698l4.868 33.332c0.111 0.289 0.224 0.586 0.33 0.891 0.349 0.889 0.656 1.886 0.912 3.003 1.28 4.903 2.056 11.252 2.056 18.184 0 5.468-0.48 10.567-1.312 14.886-0.108 1.179-0.219 2.231-0.325 3.147v10.301c0 2.705-2.19 4.896-4.894 4.896h-4.027c-2.703 0-4.896-2.188-4.896-4.896v-4.932c-8.841 0.648-19.467 0.858-30.302 0.899L49.966 88.538 49.966 88.538z" fill="#000000" data-fill-palette-color="accent"></path></g></svg></g></svg></g></svg></g><defs></defs></svg><rect width="395.52" height="133.68807051874535" fill="none" stroke="none" visibility="hidden"></rect></g></svg></g></svg>